<svg width="16" height="16" viewBox="0 0 16 16" fill="none" xmlns="http://www.w3.org/2000/svg">
<path d="M14.263 0.752799L14.2628 0.752799L3.83196 0.750466C3.70097 0.74644 3.57046 0.768525 3.44806 0.81545C3.32418 0.86294 3.21113 0.934898 3.11567 1.02703C3.02021 1.11916 2.94428 1.22958 2.89241 1.35169C2.84054 1.4738 2.81379 1.60511 2.81376 1.73779C2.81373 1.87046 2.84042 2.00178 2.89223 2.12392C2.94405 2.24606 3.01993 2.35651 3.11535 2.44868C3.21078 2.54086 3.32379 2.61287 3.44764 2.66041C3.57003 2.70739 3.70052 2.72953 3.83152 2.72557L11.878 2.72737L1.03948 13.5632C0.854181 13.7485 0.750059 13.9997 0.75 14.2618C0.749941 14.5238 0.853952 14.7751 1.03916 14.9604C1.22438 15.1458 1.47563 15.2499 1.73764 15.25C1.99965 15.2501 2.25095 15.146 2.43625 14.9608L13.2747 4.12502L13.2729 12.1731C13.2688 12.3041 13.2909 12.4346 13.3378 12.557C13.3853 12.6809 13.4572 12.794 13.5493 12.8894C13.6415 12.9849 13.7519 13.0609 13.874 13.1128C13.9961 13.1646 14.1274 13.1914 14.26 13.1914C14.3927 13.1915 14.524 13.1648 14.6461 13.1129C14.7683 13.0611 14.8787 12.9852 14.9709 12.8898C15.063 12.7943 15.135 12.6813 15.1825 12.5574C15.2295 12.435 15.2516 12.3045 15.2477 12.1735L15.25 1.74057V1.74041C15.2499 1.47861 15.1459 1.22754 14.9608 1.04235C14.7758 0.857169 14.5248 0.75302 14.263 0.752799Z" fill="white" stroke="white" stroke-width="0.5"/>
</svg>
